<?xml version="1.0" encoding="utf-8"?>
<!-- Generator: Adobe Illustrator 19.1.0, SVG Export Plug-In . SVG Version: 6.00 Build 0)  -->
<svg version="1.1" id="Layer_1" xmlns="http://www.w3.org/2000/svg" xmlns:xlink="http://www.w3.org/1999/xlink" x="0px" y="0px"
	 viewBox="0 0 256 256" style="enable-background:new 0 0 256 256;" xml:space="preserve">
<style type="text/css">
	.st0{fill:#4CC6E6;}
	.st1{fill:#FFFFFF;}
</style>
<rect x="-0.1" y="-0.4" class="st0" width="256" height="256"/>
<g>
	<path class="st1" d="M202.3,111.9c-4.1-9.2-10.9-15.7-17.5-22l-1-0.9c-4.6-4.4-23.6-21.9-29.3-27.1c-24.7-22.7-25.1-23.1-26.9-23.1
		c0,0-0.1,0-0.1,0c-1.2,0-2.2,0.5-3,1.2c-0.4,0.4-3.6,3.3-8.2,7.5C103.7,59.2,80.1,80.8,77,83.9L62.9,97.4c-5.7,5.5-10,13-12.1,21
		c-4.5,17.3,1,36.1,14.4,48.9l40.7,39.1c6.8,6.5,14.3,9.8,22.4,9.8c1.6,0,3.2-0.1,4.7-0.4c8-1.3,13.9-6.1,19.7-11.2
		c5.8-5.2,11.1-10.7,16.1-15.8c4.6-4.8,9.3-9.3,14.9-14.7c0.9-0.9,1.9-1.8,2.9-2.7c4.8-4.5,9.7-9.1,13.3-15.1
		C207.8,143.4,208.7,126.7,202.3,111.9z M176.2,139.2c-1.7,4.7-5.5,7.8-9,11.2c-3.8,3.7-7.7,7.4-11.5,11.1c-1.8,1.7-1.5,1.7-3.2,0.1
		c-2.5-2.4-5.1-4.9-7.6-7.3c-10.8-10.4-21.6-20.8-32.4-31.1c-0.5-0.5-6.3-6.4-6.6-6.1c-2.4,2.3-4.8,4.6-7.1,6.9
		c-3,2.8-6,5.5-4.9,10.1c0.6,2.6,2.5,4.3,4.3,6c2.1,2,4.2,4,6.3,6.1c5.6,5.4,11.2,10.7,16.8,16.1c1.8,1.7,3.6,3.5,5.4,5.2
		c1,1,0.9,1.3,0.9,2.8c0.2,6,0.4,12.1,0.5,18.1c-14.2-13.7-28.5-27.4-42.7-41c-3.9-3.8-6.5-8.7-7.1-14.1c-0.5-4.7,0.6-11.4,4.2-14.8
		c3.7-3.5,7.3-7,11-10.6c5.1-4.9,10.3-9.9,15.4-14.8c1.6-1.6,3.2-3.1,4.9-4.6c2.8-2.6,5.6-5.1,8.4-7.7c1.2-1.1,2.4-2.2,3.6-3.3
		c0.3-0.3,2.2-1.6,2.2-2.1c0.3,0.3,0.6,0.5,0.8,0.8c9.7,9.3,19.3,18.6,29,27.9c3.9,3.7,7.7,7.4,11.6,11.1
		C176.1,121.2,179.4,130.4,176.2,139.2z"/>
	<path class="st1" d="M162.1,129.8L162,129l-0.2-0.8l-0.3-0.8l-0.4-0.7l-0.5-0.7l-0.5-0.7l-0.6-0.6l-30.7-29.5c0,0-0.3,0.3-0.7,0.7
		l-0.7,0.7l-0.9,0.9c-0.6,0.6-1.3,1.3-1.9,1.9c-0.6,0.6-1.2,1.1-1.6,1.5l-6.8,6.6l36.9,35.4l6.8-6.6l0.6-0.6l0.5-0.6l0.4-0.7
		l0.3-0.7l0.3-0.7l0.2-0.8l0.1-0.8l0-0.8L162.1,129.8z"/>
</g>
</svg>
