<?xml version="1.0" encoding="utf-8"?>
<!-- Generator: Adobe Illustrator 19.0.0, SVG Export Plug-In . SVG Version: 6.00 Build 0)  -->
<svg version="1.1" id="Layer_1" xmlns="http://www.w3.org/2000/svg" xmlns:xlink="http://www.w3.org/1999/xlink" x="0px" y="0px"
	 viewBox="0 0 70 40" enable-background="new 0 0 70 40" xml:space="preserve">
<g id="XMLID_411_">
	<g id="XMLID_412_">
		<path id="XMLID_414_" fill="#FFFFFF" d="M51.1,26.4c1.8-2.9,2-6.6,0.5-9.9c-0.9-2.1-2.4-3.5-3.9-4.9l-6.7-6.3
			c-5.5-5.1-5.6-5.1-6-5.1c0,0,0,0,0,0c-0.3,0-0.5,0.1-0.7,0.3L20.5,13.3c-1.3,1.2-2.2,2.9-2.7,4.7c-1,3.9,0.2,8,3.2,10.9l9.1,8.7
			c1.5,1.5,3.2,2.2,5,2.2c0.3,0,0.7,0,1.1-0.1c1.8-0.3,3.1-1.4,4.4-2.5L51.1,26.4z M34.7,28.9c0.2,0.2,0.2,0.3,0.2,0.6
			c0,1.3,0.1,2.7,0.1,4c-3.2-3-6.3-6.1-9.5-9.1c-0.9-0.8-1.5-1.9-1.6-3.2c-0.1-1,0.1-2.5,0.9-3.3l10.1-9.6l9.2,8.9
			c1.5,1.4,2.2,3.5,1.5,5.4c-0.4,1-1.2,1.7-2,2.5c-0.9,0.8-1.7,1.6-2.6,2.5c-0.4,0.4-0.3,0.4-0.7,0c-0.6-0.5-1.1-1.1-1.7-1.6
			c-2.4-2.3-4.8-4.6-7.2-6.9c-0.1-0.1-1.4-1.4-1.5-1.4c-0.5,0.5-1.1,1-1.6,1.5c-0.7,0.6-1.3,1.2-1.1,2.3c0.1,0.6,0.6,0.9,1,1.3
			L34.7,28.9z"/>
		<path id="XMLID_6_" fill="#FFFFFF" d="M35.2,12.8l6.8,6.6c0,0,1.3,1.2,0.1,2.6l-1.5,1.5l-8.2-7.9L35.2,12.8z"/>
	</g>
</g>
</svg>
